<svg width="32" height="32" viewBox="0 0 32 32" fill="none" xmlns="http://www.w3.org/2000/svg">
<path d="M27.6667 1H4.33333C2.49238 1 1 2.49238 1 4.33333V27.6667C1 29.5076 2.49238 31 4.33333 31H27.6667C29.5076 31 31 29.5076 31 27.6667V4.33333C31 2.49238 29.5076 1 27.6667 1Z" stroke="white" stroke-width="2" stroke-linecap="round" stroke-linejoin="round"/>
<path d="M10.1665 12.6665C11.5472 12.6665 12.6665 11.5472 12.6665 10.1665C12.6665 8.78579 11.5472 7.6665 10.1665 7.6665C8.78579 7.6665 7.6665 8.78579 7.6665 10.1665C7.6665 11.5472 8.78579 12.6665 10.1665 12.6665Z" stroke="white" stroke-width="2" stroke-linecap="round" stroke-linejoin="round"/>
<path d="M31.0002 20.9998L22.6668 12.6665L4.3335 30.9998" stroke="white" stroke-width="2" stroke-linecap="round" stroke-linejoin="round"/>
</svg>
