<svg width="30" height="36" viewBox="0 0 30 36" fill="none" xmlns="http://www.w3.org/2000/svg">
<path d="M18.3332 1.3335H4.99984C4.11578 1.3335 3.26794 1.68469 2.64281 2.30981C2.01769 2.93493 1.6665 3.78277 1.6665 4.66683V31.3335C1.6665 32.2176 2.01769 33.0654 2.64281 33.6905C3.26794 34.3156 4.11578 34.6668 4.99984 34.6668H24.9998C25.8839 34.6668 26.7317 34.3156 27.3569 33.6905C27.982 33.0654 28.3332 32.2176 28.3332 31.3335V11.3335L18.3332 1.3335Z" stroke="white" stroke-width="2" stroke-linecap="round" stroke-linejoin="round"/>
<path d="M18.333 1.3335V11.3335H28.333" stroke="white" stroke-width="2" stroke-linecap="round" stroke-linejoin="round"/>
<path d="M21.6663 19.667H8.33301" stroke="white" stroke-width="2" stroke-linecap="round" stroke-linejoin="round"/>
<path d="M21.6663 26.3335H8.33301" stroke="white" stroke-width="2" stroke-linecap="round" stroke-linejoin="round"/>
<path d="M11.6663 13H9.99967H8.33301" stroke="white" stroke-width="2" stroke-linecap="round" stroke-linejoin="round"/>
</svg>
